<svg xmlns="http://www.w3.org/2000/svg" viewBox="0 0 315 215" class="svg-logo" width="315" height="215" style="height: auto;"><rect rx="10" ry="10" width="100%" height="100%" fill="rgba(9, 70, 155, 1.0)"></rect><g data-element="wrapper" transform="translate(118.12499618530126 76.69999790191535) scale(0.2500000000000094)"><g><g data-element="icon" transform="scale(0.15) translate(-1520.1389592488608 416.00766662756604)"><path id="color_x5F_3" fill="#DA1B5D" d="M594.054,281.453v88.545c0,72.041-58.599,130.647-130.647,130.647H333.275l-95.738,95.758    c-2.781,2.771-6.493,4.256-10.268,4.256c-1.868,0-3.755-0.37-5.553-1.122c-5.424-2.243-8.958-7.529-8.958-13.403v-85.49h-74.845    c-60.434,0-111.243-41.283-126.12-97.084c99.397,20.965,203.315,22.39,303.801,3.174c52.901-10.274,104.934-26.046,154.328-48.416    C514.192,338.27,556.452,312.91,594.054,281.453z"></path> <path id="color_x5F_2" fill="#231F20" d="M463.407,0.659H137.912C65.863,0.659,7.264,59.265,7.264,131.3v224.49    c99.078,14.367,199.962,12.44,297.394-6.078c49.173-9.304,97.421-23.176,143.545-41.863c46.124-18.682,90.096-42.484,129.475-72.319    c5.566-4.244,11.004-8.651,16.376-13.158V131.3C594.054,59.265,535.454,0.659,463.407,0.659z M291.288,295.495H154.293    c-10.356,0-18.747-8.38-18.747-18.754c0-10.348,8.391-18.741,18.747-18.741h136.995c10.357,0,18.748,8.393,18.748,18.741    C310.036,287.114,301.645,295.495,291.288,295.495z M447.035,208.402H154.293c-10.356,0-18.747-8.395-18.747-18.748    c0-10.367,8.391-18.748,18.747-18.748h292.742c10.357,0,18.748,8.381,18.748,18.748    C465.783,200.007,457.392,208.402,447.035,208.402z M447.035,121.308H154.293c-10.356,0-18.747-8.393-18.747-18.754    c0-10.361,8.391-18.748,18.747-18.748h292.742c10.357,0,18.748,8.387,18.748,18.748    C465.783,112.914,457.392,121.308,447.035,121.308z"></path> <path id="color_x5F_1" fill="#FFFFFF" d="M291.288,295.495H154.293c-10.356,0-18.747-8.38-18.747-18.754    c0-10.348,8.391-18.741,18.747-18.741h136.995c10.357,0,18.748,8.393,18.748,18.741    C310.036,287.114,301.645,295.495,291.288,295.495z M447.035,208.402H154.293c-10.356,0-18.747-8.395-18.747-18.748    c0-10.367,8.391-18.748,18.747-18.748h292.742c10.357,0,18.748,8.381,18.748,18.748    C465.783,200.007,457.392,208.402,447.035,208.402z M447.035,121.308H154.293c-10.356,0-18.747-8.393-18.747-18.754    c0-10.361,8.391-18.748,18.747-18.748h292.742c10.357,0,18.748,8.387,18.748,18.748    C465.783,112.914,457.392,121.308,447.035,121.308z"></path></g><text transform="translate(-122.93124389648438 130.3000030517578)" fill="rgba(180, 215, 253, 1.0)" font-family="JP MPLUS Rounded 1c" font-size="64" data-element="company-name" dx="0 0 0 0 0 0 0 0 0 0 0 0 0 0 0 0 0 0 0 0">Whatsapp Web Manager</text><text transform="translate(176.70623779296875 174.29999923706055)" fill="rgba(180, 215, 253, 1.0)" font-family="Anaheim" font-size="28.8" data-element="slogan" dx="0 0 0 0 0 0 0 0 0 0 0 0 0 0 0 0 0 0 0 0 0 0 0 0 0 0 0 0 0 0">Take you business to next step</text></g></g></svg>